<?xml version="1.0" encoding="UTF-8" standalone="no"?>
<!-- Created with Inkscape (http://www.inkscape.org/) -->

<svg
   xmlns:dc="http://purl.org/dc/elements/1.1/"
   xmlns:cc="http://creativecommons.org/ns#"
   xmlns:rdf="http://www.w3.org/1999/02/22-rdf-syntax-ns#"
   xmlns:svg="http://www.w3.org/2000/svg"
   xmlns="http://www.w3.org/2000/svg"
   xmlns:sodipodi="http://sodipodi.sourceforge.net/DTD/sodipodi-0.dtd"
   xmlns:inkscape="http://www.inkscape.org/namespaces/inkscape"
   width="500.63779"
   height="500.51968"
   viewBox="0 0 132.46041 132.42917"
   version="1.1"
   id="svg8"
   inkscape:version="0.92.3 (2405546, 2018-03-11)"
   sodipodi:docname="BUTTERFLY2.svg">
  <defs
     id="defs2">
    <filter
       style="color-interpolation-filters:sRGB;"
       inkscape:label="Cross Blur"
       id="filter8702">
      <feColorMatrix
         in="SourceGraphic"
         values="1 0 0 0 0 0 1 0 0 0 0 0 1 0 0 -0.2125 -0.7154 -0.0721 1 0 "
         result="colormatrix"
         id="feColorMatrix8692" />
      <feComposite
         in="SourceGraphic"
         in2="colormatrix"
         operator="arithmetic"
         k2="1"
         k3="0"
         k4="0"
         result="composite"
         id="feComposite8694" />
      <feGaussianBlur
         stdDeviation="5 0.01"
         result="blur1"
         id="feGaussianBlur8696" />
      <feGaussianBlur
         in="composite"
         stdDeviation="0.01 5"
         result="blur2"
         id="feGaussianBlur8698" />
      <feBlend
         in="blur2"
         in2="blur1"
         mode="darken"
         result="blend"
         id="feBlend8700" />
    </filter>
    <filter
       style="color-interpolation-filters:sRGB"
       inkscape:label="Cross Blur"
       id="filter8702-0">
      <feColorMatrix
         in="SourceGraphic"
         values="1 0 0 0 0 0 1 0 0 0 0 0 1 0 0 -0.2125 -0.7154 -0.0721 1 0 "
         result="colormatrix"
         id="feColorMatrix8692-1" />
      <feComposite
         k1="0"
         in="SourceGraphic"
         in2="colormatrix"
         operator="arithmetic"
         k2="1"
         k3="0"
         k4="0"
         result="composite"
         id="feComposite8694-7" />
      <feGaussianBlur
         stdDeviation="5 0.01"
         result="blur1"
         id="feGaussianBlur8696-2" />
      <feGaussianBlur
         in="composite"
         stdDeviation="0.01 5"
         result="blur2"
         id="feGaussianBlur8698-1" />
      <feBlend
         in="blur2"
         in2="blur1"
         mode="darken"
         result="blend"
         id="feBlend8700-1" />
    </filter>
    <filter
       style="color-interpolation-filters:sRGB"
       inkscape:label="Cross Blur"
       id="filter8702-0-5">
      <feColorMatrix
         in="SourceGraphic"
         values="1 0 0 0 0 0 1 0 0 0 0 0 1 0 0 -0.2125 -0.7154 -0.0721 1 0 "
         result="colormatrix"
         id="feColorMatrix8692-1-5" />
      <feComposite
         k1="0"
         in="SourceGraphic"
         in2="colormatrix"
         operator="arithmetic"
         k2="1"
         k3="0"
         k4="0"
         result="composite"
         id="feComposite8694-7-2" />
      <feGaussianBlur
         stdDeviation="5 0.01"
         result="blur1"
         id="feGaussianBlur8696-2-9" />
      <feGaussianBlur
         in="composite"
         stdDeviation="0.01 5"
         result="blur2"
         id="feGaussianBlur8698-1-3" />
      <feBlend
         in="blur2"
         in2="blur1"
         mode="darken"
         result="blend"
         id="feBlend8700-1-1" />
    </filter>
    <filter
       style="color-interpolation-filters:sRGB;"
       inkscape:label="Cross Blur"
       id="filter8780">
      <feColorMatrix
         in="SourceGraphic"
         values="1 0 0 0 0 0 1 0 0 0 0 0 1 0 0 -0.2125 -0.7154 -0.0721 1 0 "
         result="colormatrix"
         id="feColorMatrix8770" />
      <feComposite
         in="SourceGraphic"
         in2="colormatrix"
         operator="arithmetic"
         k2="1"
         k3="0"
         k4="0"
         result="composite"
         id="feComposite8772" />
      <feGaussianBlur
         stdDeviation="5 0.01"
         result="blur1"
         id="feGaussianBlur8774" />
      <feGaussianBlur
         in="composite"
         stdDeviation="0.01 5"
         result="blur2"
         id="feGaussianBlur8776" />
      <feBlend
         in="blur2"
         in2="blur1"
         mode="darken"
         result="blend"
         id="feBlend8778" />
    </filter>
    <filter
       style="color-interpolation-filters:sRGB"
       inkscape:label="Cross Blur"
       id="filter8780-8">
      <feColorMatrix
         in="SourceGraphic"
         values="1 0 0 0 0 0 1 0 0 0 0 0 1 0 0 -0.2125 -0.7154 -0.0721 1 0 "
         result="colormatrix"
         id="feColorMatrix8770-1" />
      <feComposite
         k1="0"
         in="SourceGraphic"
         in2="colormatrix"
         operator="arithmetic"
         k2="1"
         k3="0"
         k4="0"
         result="composite"
         id="feComposite8772-7" />
      <feGaussianBlur
         stdDeviation="5 0.01"
         result="blur1"
         id="feGaussianBlur8774-7" />
      <feGaussianBlur
         in="composite"
         stdDeviation="0.01 5"
         result="blur2"
         id="feGaussianBlur8776-1" />
      <feBlend
         in="blur2"
         in2="blur1"
         mode="darken"
         result="blend"
         id="feBlend8778-5" />
    </filter>
  </defs>
  <sodipodi:namedview
     id="base"
     pagecolor="#ffffff"
     bordercolor="#666666"
     borderopacity="1.0"
     inkscape:pageopacity="0.0"
     inkscape:pageshadow="2"
     inkscape:zoom="1.63"
     inkscape:cx="107.06255"
     inkscape:cy="250.25984"
     inkscape:document-units="mm"
     inkscape:current-layer="layer1"
     showgrid="false"
     units="px"
     inkscape:window-width="1366"
     inkscape:window-height="705"
     inkscape:window-x="-8"
     inkscape:window-y="-8"
     inkscape:window-maximized="1" />
  <metadata
     id="metadata5">
    <rdf:RDF>
      <cc:Work
         rdf:about="">
        <dc:format>image/svg+xml</dc:format>
        <dc:type
           rdf:resource="http://purl.org/dc/dcmitype/StillImage" />
        <dc:title></dc:title>
      </cc:Work>
    </rdf:RDF>
  </metadata>
  <g
     inkscape:label="Camada 1"
     inkscape:groupmode="layer"
     id="layer1"
     transform="translate(0,-164.57082)">
    <path
       style="fill:#4d4d4d;stroke-width:3.46499991;stroke-miterlimit:4;stroke-dasharray:none"
       id="path4598"
       sodipodi:type="arc"
       sodipodi:cx="119.72005"
       sodipodi:cy="211.43134"
       sodipodi:rx="1.1735551"
       sodipodi:ry="24.53797"
       sodipodi:start="0"
       sodipodi:end="6.2737954"
       d="m 120.8936,211.43134 a 1.1735551,24.53797 0 0 1 -1.1708,24.5379 1.1735551,24.53797 0 0 1 -1.1763,-24.4227 1.1735551,24.53797 0 0 1 1.16528,-24.65257 1.1735551,24.53797 0 0 1 1.18177,24.30696 l -1.1735,0.23041 z" />
    <path
       sodipodi:nodetypes="csssccc"
       inkscape:connector-curvature="0"
       id="path8660"
       d="m 54.625296,238.33774 c 2.388644,4.49355 8.032325,5.63202 12.609463,2.54365 4.577133,-3.08837 15.121585,-15.15974 12.74085,-19.65864 -2.380722,-4.49889 -16.786266,0.27617 -21.367509,3.35676 -4.581256,3.08059 -6.370526,9.22584 -3.997711,13.73005 z"
       style="fill:#b3b3b3;stroke-width:8.68605614;stroke-miterlimit:4;stroke-dasharray:none" />
    <path
       style="fill:#b3b3b3;stroke-width:8.6861105;stroke-miterlimit:4;stroke-dasharray:none"
       d="m 54.625296,238.33774 c -2.149611,4.61268 -7.725849,6.04565 -12.458779,3.20165 -4.732922,-2.844 -15.896336,-14.34559 -13.754902,-18.9632 2.141421,-4.61759 16.777828,-0.60483 21.514446,2.23119 4.736632,2.83601 6.845888,8.87895 4.712644,13.50143 z"
       id="path8662"
       inkscape:connector-curvature="0"
       sodipodi:nodetypes="csssccc" />
    <path
       style="fill:#b3b3b3;stroke-width:12.32806873;stroke-miterlimit:4;stroke-dasharray:none"
       d="m 50.616458,240.94349 c 2.822091,-7.66151 9.489883,-9.60261 14.897595,-4.33693 5.407706,5.26568 17.86557,25.84741 15.052824,33.51805 -2.812732,7.67063 -19.832327,-0.47087 -25.24489,-5.72328 -5.412577,-5.25242 -7.526531,-15.73009 -4.723141,-23.40979 z"
       id="path8664"
       inkscape:connector-curvature="0"
       sodipodi:nodetypes="csssccc" />
    <path
       sodipodi:nodetypes="csssccc"
       inkscape:connector-curvature="0"
       id="path8666"
       d="m 58.927733,245.00042 c -2.539682,-7.86464 -9.127793,-10.30786 -14.719568,-5.45883 -5.591766,4.84903 -18.780909,24.45929 -16.250887,32.33233 2.530007,7.873 19.822358,1.03123 25.418489,-3.80419 5.596148,-4.83541 8.088153,-15.13864 5.567808,-23.01999 z"
       style="fill:#b3b3b3;stroke-width:12.32814693;stroke-miterlimit:4;stroke-dasharray:none" />
    <path
       style="fill:#ececec;stroke-width:17.32159805;stroke-miterlimit:4;stroke-dasharray:none"
       d="m 245.16602,237.96289 c -9.83778,-0.23217 -25.28044,6.42425 -31.35743,11.19531 -3.28474,2.57886 -5.78028,6.15903 -7.36132,10.13672 -1.58667,-3.94438 -4.08271,-7.49307 -7.36133,-10.05273 -8.47849,-6.6193 -35.13698,-16.8797 -39.54297,-7.21289 -4.40602,9.66683 15.10724,35.60423 23.57812,42.24023 0.42334,0.33164 0.85491,0.62365 1.28711,0.91016 -1.55335,0.92937 -3.09567,2.1489 -4.60156,3.68554 -11.26426,11.49432 -37.8329,57.97807 -32.73633,76.64063 5.09654,18.66247 39.93007,2.44447 51.20313,-9.01758 5.16383,-5.25039 9.01139,-13.22323 11.18164,-22.11523 2.16923,8.90952 6.01835,16.90047 11.1875,22.16015 11.27378,11.47125 46.11016,27.70089 51.20703,9.02344 5.0969,-18.67753 -21.4733,-65.19958 -32.73828,-76.70312 -2.7425,-2.80059 -5.60372,-4.56693 -8.4375,-5.38086 8.85087,-7.67742 26.8119,-32.18851 22.57031,-41.54688 -1.23574,-2.72647 -4.22856,-3.87204 -8.07812,-3.96289 z"
       transform="matrix(0.26458333,0,0,0.26458333,0,164.57082)"
       id="path8660-2"
       inkscape:connector-curvature="0" />
    <path
       style="fill:#f2f2f2;stroke-width:1.14237666;stroke-miterlimit:4;stroke-dasharray:none"
       id="path8845"
       sodipodi:type="arc"
       sodipodi:cx="74.965271"
       sodipodi:cy="222.73625"
       sodipodi:rx="2.0044191"
       sodipodi:ry="1.5033145"
       sodipodi:start="0"
       sodipodi:end="6.2039975"
       d="m 76.96969,222.73625 a 2.0044191,1.5033145 0 0 1 -1.96474,1.50302 2.0044191,1.5033145 0 0 1 -2.042527,-1.44351 2.0044191,1.5033145 0 0 1 1.883874,-1.56017 2.0044191,1.5033145 0 0 1 2.117112,1.38174"
       sodipodi:open="true" />
    <path
       style="fill:#f2f2f2;stroke-width:1.14237666;stroke-miterlimit:4;stroke-dasharray:none"
       id="path8845-1"
       sodipodi:type="arc"
       sodipodi:cx="31.669827"
       sodipodi:cy="223.63824"
       sodipodi:rx="2.0044191"
       sodipodi:ry="1.5033145"
       sodipodi:start="0"
       sodipodi:end="6.2039975"
       d="m 33.674246,223.63824 a 2.0044191,1.5033145 0 0 1 -1.964741,1.50302 2.0044191,1.5033145 0 0 1 -2.042527,-1.44351 2.0044191,1.5033145 0 0 1 1.883874,-1.56017 2.0044191,1.5033145 0 0 1 2.117112,1.38174"
       sodipodi:open="true" />
    <path
       style="fill:#f2f2f2;stroke-width:1.14237666;stroke-miterlimit:4;stroke-dasharray:none"
       id="path8845-7"
       sodipodi:type="arc"
       sodipodi:cx="77.971901"
       sodipodi:cy="267.93591"
       sodipodi:rx="2.0044191"
       sodipodi:ry="1.5033145"
       sodipodi:start="0"
       sodipodi:end="6.2039975"
       d="m 79.97632,267.93591 a 2.0044191,1.5033145 0 0 1 -1.96474,1.50302 2.0044191,1.5033145 0 0 1 -2.042527,-1.44351 2.0044191,1.5033145 0 0 1 1.883874,-1.56017 2.0044191,1.5033145 0 0 1 2.117112,1.38174"
       sodipodi:open="true" />
    <path
       style="fill:#f2f2f2;stroke-width:1.14237666;stroke-miterlimit:4;stroke-dasharray:none"
       id="path8845-14"
       sodipodi:type="arc"
       sodipodi:cx="31.870268"
       sodipodi:cy="270.34122"
       sodipodi:rx="2.0044191"
       sodipodi:ry="1.5033145"
       sodipodi:start="0"
       sodipodi:end="6.2039975"
       d="m 33.874687,270.34122 a 2.0044191,1.5033145 0 0 1 -1.96474,1.50302 2.0044191,1.5033145 0 0 1 -2.042527,-1.44352 2.0044191,1.5033145 0 0 1 1.883874,-1.56017 2.0044191,1.5033145 0 0 1 2.117112,1.38175"
       sodipodi:open="true" />
  </g>
</svg>
