<?xml version="1.0" encoding="UTF-8" standalone="no"?>
<!-- Created with Inkscape (http://www.inkscape.org/) -->

<svg
   xmlns:dc="http://purl.org/dc/elements/1.1/"
   xmlns:cc="http://creativecommons.org/ns#"
   xmlns:rdf="http://www.w3.org/1999/02/22-rdf-syntax-ns#"
   xmlns:svg="http://www.w3.org/2000/svg"
   xmlns="http://www.w3.org/2000/svg"
   xmlns:sodipodi="http://sodipodi.sourceforge.net/DTD/sodipodi-0.dtd"
   xmlns:inkscape="http://www.inkscape.org/namespaces/inkscape"
   width="210mm"
   height="297mm"
   viewBox="0 0 210 297"
   version="1.1"
   id="svg8"
   inkscape:version="0.92.3 (2405546, 2018-03-11)"
   sodipodi:docname="butterfly.svg">
  <defs
     id="defs2">
    <inkscape:path-effect
       effect="spiro"
       id="path-effect840"
       is_visible="true" />
    <inkscape:path-effect
       effect="spiro"
       id="path-effect840-1"
       is_visible="true" />
    <inkscape:path-effect
       effect="spiro"
       id="path-effect840-9"
       is_visible="true" />
  </defs>
  <sodipodi:namedview
     id="base"
     pagecolor="#ffffff"
     bordercolor="#666666"
     borderopacity="1.0"
     inkscape:pageopacity="0.0"
     inkscape:pageshadow="2"
     inkscape:zoom="0.58"
     inkscape:cx="-64.285714"
     inkscape:cy="560"
     inkscape:document-units="mm"
     inkscape:current-layer="layer1"
     showgrid="false"
     inkscape:window-width="1366"
     inkscape:window-height="705"
     inkscape:window-x="-8"
     inkscape:window-y="-8"
     inkscape:window-maximized="1" />
  <metadata
     id="metadata5">
    <rdf:RDF>
      <cc:Work
         rdf:about="">
        <dc:format>image/svg+xml</dc:format>
        <dc:type
           rdf:resource="http://purl.org/dc/dcmitype/StillImage" />
        <dc:title></dc:title>
      </cc:Work>
    </rdf:RDF>
  </metadata>
  <g
     inkscape:label="Camada 1"
     inkscape:groupmode="layer"
     id="layer1">
    <path
       style="fill:#ffffff;stroke:#000000;stroke-width:14.89889717;stroke-linecap:butt;stroke-linejoin:miter;stroke-miterlimit:4;stroke-dasharray:none;stroke-opacity:1"
       d="M 487.22656 341.30859 C 444.89861 341.20988 400.35304 355.30815 374.91797 380.14258 C 372.63629 382.37038 370.70796 385.36577 369.06445 388.86523 C 367.45077 385.49868 365.55988 382.62213 363.3418 380.46094 C 320.50027 338.71846 223.44644 327.36839 174.08008 362.91016 C 139.11603 388.08285 150.69862 456.36181 172.85156 491.24023 C 194.18519 524.82867 272.39844 497.82031 272.39844 497.82031 C 293.25282 479.06399 308.1107 498.20013 256.42188 521.95117 C 256.42188 521.95117 220.13473 547.496 198.66016 565.82422 C 175.34594 585.72256 162.75554 619.87122 169.16406 648.08789 C 177.53217 684.93254 210.96164 723.44452 251.50586 733.64062 C 289.64253 743.2313 344.82962 651.79044 369.09375 607.42578 C 393.31393 651.82372 448.57032 743.65379 486.74609 734.0332 C 527.28701 723.81657 560.71266 685.22533 569.08008 648.30664 C 575.48808 620.03324 562.89825 585.81724 539.58594 565.87891 C 518.11312 547.51384 481.83008 521.91797 481.83008 521.91797 C 430.14549 498.11919 445.00084 478.94623 465.85352 497.74023 C 465.85352 497.74023 544.0607 524.80051 565.39258 491.14453 C 587.54371 456.19603 599.12526 387.78188 564.16406 362.55859 C 544.11062 348.09073 516.18779 341.37614 487.22656 341.30859 z "
       transform="scale(0.26458333)"
       id="path12" />
    <path
       style="fill:none;stroke:#000000;stroke-width:2.4;stroke-linecap:butt;stroke-linejoin:miter;stroke-opacity:1;stroke-miterlimit:4;stroke-dasharray:none"
       d="m 97.648301,102.88726 c 3.871639,-13.850704 12.845919,-26.213099 24.815979,-34.18488 1.66842,-1.111129 3.39906,-2.144949 4.91648,-3.454779 1.51743,-1.30983 2.83187,-2.938043 3.399,-4.860697 0.60309,-2.044568 0.28411,-4.351822 -0.89053,-6.130643 -1.17463,-1.778822 -3.19357,-2.984423 -5.32034,-3.128622 -2.12678,-0.1442 -4.3088,0.793331 -5.63249,2.464203 -0.66184,0.835436 -1.11169,1.838424 -1.2892,2.889368 -0.17752,1.050943 -0.0817,2.147646 0.28137,3.149742 0.52925,1.46088 1.63563,2.703756 3.02538,3.398634 1.38976,0.694878 3.04789,0.834255 4.53414,0.381127"
       id="path838"
       inkscape:connector-curvature="0"
       inkscape:path-effect="#path-effect840"
       inkscape:original-d="m 97.648301,102.88726 c 8.272259,-11.395228 16.544249,-22.790187 24.815979,-34.18488 8.27174,-11.394694 5.54392,-5.543916 8.31548,-8.315476 2.77156,-2.771561 -8.5672,-0.504233 -12.85119,-0.755952 -4.28399,-0.251719 5.03995,2.519577 7.55952,3.779761" />
    <path
       style="fill:none;stroke:#000000;stroke-width:2.4;stroke-linecap:butt;stroke-linejoin:miter;stroke-opacity:1;stroke-miterlimit:4;stroke-dasharray:none"
       d="M 97.648301,102.88726 C 94.472019,89.191827 86.091711,76.770371 74.581658,68.697432 c -1.588619,-1.114228 -3.24122,-2.15438 -4.667236,-3.470318 -1.426016,-1.315938 -2.633301,-2.953909 -3.062066,-4.846361 -0.413999,-1.827275 -0.04477,-3.826691 1.030156,-5.361248 1.074926,-1.534557 2.847373,-2.570154 4.715686,-2.710641 1.868313,-0.140488 3.79271,0.631442 5.014422,2.051918 0.610855,0.710238 1.047569,1.570046 1.255183,2.483544 0.207614,0.913498 0.185178,1.879043 -0.07017,2.780365 -0.404367,1.427337 -1.406451,2.675074 -2.712893,3.377936 -1.306442,0.702862 -2.899843,0.851489 -4.313738,0.402372"
       id="path838-4"
       inkscape:connector-curvature="0"
       inkscape:path-effect="#path-effect840-9"
       inkscape:original-d="M 97.648301,102.88726 C 89.959172,91.490383 82.270294,80.093775 74.581658,68.697432 66.893013,57.301089 69.428543,63.152714 66.852356,60.380753 c -2.576186,-2.771962 7.963278,-0.504306 11.945279,-0.756062 3.982002,-0.251754 -4.684672,2.519942 -7.026631,3.780308" />
    <path
       style="fill:#000000;stroke:#000000;stroke-width:3.46499991;stroke-linecap:butt;stroke-linejoin:miter;stroke-miterlimit:4;stroke-dasharray:none;stroke-opacity:1"
       d="m 97.648301,102.88726 c -5.044766,-18.864928 -2.440854,38.55138 0.0078,57.82747 2.429129,19.12242 1.291512,-24.02045 0.748096,-36.37165 -0.314374,-7.14534 -0.755896,-21.45582 -0.755896,-21.45582 z"
       id="path878"
       inkscape:connector-curvature="0"
       sodipodi:nodetypes="ssss" />
  </g>
</svg>
