<?xml version="1.0" encoding="UTF-8" standalone="no"?>
<!-- Created with Inkscape (http://www.inkscape.org/) -->

<svg
   xmlns:dc="http://purl.org/dc/elements/1.1/"
   xmlns:cc="http://creativecommons.org/ns#"
   xmlns:rdf="http://www.w3.org/1999/02/22-rdf-syntax-ns#"
   xmlns:svg="http://www.w3.org/2000/svg"
   xmlns="http://www.w3.org/2000/svg"
   xmlns:xlink="http://www.w3.org/1999/xlink"
   xmlns:sodipodi="http://sodipodi.sourceforge.net/DTD/sodipodi-0.dtd"
   xmlns:inkscape="http://www.inkscape.org/namespaces/inkscape"
   width="210mm"
   height="297mm"
   viewBox="0 0 210 297"
   version="1.1"
   id="svg922"
   inkscape:version="0.92.3 (2405546, 2018-03-11)"
   sodipodi:docname="cross.svg"
   inkscape:export-filename="C:\Users\Natalia\Documents\Pos-Jogos\tictactoe-master (1)\tictactoe-master\Assets\Sprites\cross.png"
   inkscape:export-xdpi="96"
   inkscape:export-ydpi="96">
  <defs
     id="defs916">
    <inkscape:path-effect
       effect="bspline"
       id="path-effect4307"
       is_visible="true"
       weight="33.333333"
       steps="2"
       helper_size="0"
       apply_no_weight="true"
       apply_with_weight="true"
       only_selected="false" />
    <inkscape:path-effect
       effect="spiro"
       id="path-effect4299"
       is_visible="true" />
    <inkscape:path-effect
       effect="spiro"
       id="path-effect2939"
       is_visible="true" />
    <linearGradient
       inkscape:collect="always"
       id="linearGradient1527">
      <stop
         style="stop-color:#008000;stop-opacity:1;"
         offset="0"
         id="stop1523" />
      <stop
         style="stop-color:#008000;stop-opacity:0;"
         offset="1"
         id="stop1525" />
    </linearGradient>
    <linearGradient
       inkscape:collect="always"
       xlink:href="#linearGradient1527"
       id="linearGradient1529-9-8-1-3"
       x1="48.24239"
       y1="223.68108"
       x2="107.76257"
       y2="179.83583"
       gradientUnits="userSpaceOnUse"
       gradientTransform="matrix(0.22843913,-0.26434834,0.30328206,0.26208409,-25.529699,8.946142)" />
    <inkscape:path-effect
       effect="spiro"
       id="path-effect2939-4"
       is_visible="true" />
    <inkscape:path-effect
       effect="spiro"
       id="path-effect2939-46"
       is_visible="true" />
    <inkscape:path-effect
       effect="spiro"
       id="path-effect2939-8"
       is_visible="true" />
    <inkscape:path-effect
       effect="spiro"
       id="path-effect2939-45"
       is_visible="true" />
    <inkscape:path-effect
       effect="spiro"
       id="path-effect2939-9"
       is_visible="true" />
  </defs>
  <sodipodi:namedview
     id="base"
     pagecolor="#ffffff"
     bordercolor="#666666"
     borderopacity="1.0"
     inkscape:pageopacity="0.0"
     inkscape:pageshadow="2"
     inkscape:zoom="1.0824912"
     inkscape:cx="515.46247"
     inkscape:cy="660.06507"
     inkscape:document-units="mm"
     inkscape:current-layer="layer1"
     showgrid="false"
     inkscape:window-width="1366"
     inkscape:window-height="705"
     inkscape:window-x="-8"
     inkscape:window-y="-8"
     inkscape:window-maximized="1" />
  <metadata
     id="metadata919">
    <rdf:RDF>
      <cc:Work
         rdf:about="">
        <dc:format>image/svg+xml</dc:format>
        <dc:type
           rdf:resource="http://purl.org/dc/dcmitype/StillImage" />
        <dc:title></dc:title>
      </cc:Work>
    </rdf:RDF>
  </metadata>
  <g
     inkscape:label="Camada 1"
     inkscape:groupmode="layer"
     id="layer1">
    <path
       style="fill:#d45500;stroke:none;stroke-width:0.26458332px;stroke-linecap:butt;stroke-linejoin:miter;stroke-opacity:1"
       d="m 53.823139,82.010861 c -0.684185,-3.916556 -0.0732,-8.040311 1.668914,-11.614182 1.742117,-3.57387 4.60011,-6.585229 8.051541,-8.558841 3.451431,-1.973612 7.479698,-2.908583 11.450672,-2.711383 3.970974,0.1972 7.8729,1.519202 11.176698,3.731088 4.388112,2.937832 7.619045,7.319047 10.215102,11.917619 2.410498,4.269879 4.386694,8.850432 7.581284,12.570243 1.59729,1.859905 3.50058,3.487613 5.7051,4.560314 2.20452,1.072701 4.72447,1.568152 7.14382,1.171501 2.23221,-0.36597 4.3033,-1.47516 6.01167,-2.957786 1.70837,-1.482626 3.07201,-3.328307 4.20724,-5.28482 2.27048,-3.913027 3.6631,-8.287072 5.95499,-12.187596 2.52111,-4.290637 6.14652,-7.959461 10.51772,-10.338168 4.37119,-2.378707 9.48873,-3.432382 14.41905,-2.756026 4.93033,0.676356 9.63615,3.118953 12.8659,6.905017 3.22975,3.786065 4.90778,8.907117 4.33463,13.850503 -0.57613,4.969168 -3.31654,9.487505 -6.80733,13.070645 -3.4908,3.58314 -7.71866,6.347246 -11.92036,9.062071 -4.46914,2.88762 -8.98431,5.77999 -12.81303,9.47491 -3.82871,3.69493 -6.97185,8.2971 -8.0428,13.50907 -1.01217,4.92591 -0.0927,10.15081 2.14404,14.65481 2.23675,4.50401 5.73532,8.31165 9.77358,11.30858 3.91141,2.90279 8.31742,5.07162 12.32747,7.83654 4.01004,2.76493 7.73464,6.30647 9.37962,10.89115 0.95085,2.65008 1.15448,5.55594 0.64009,8.32405 -0.51439,2.7681 -1.73979,5.394 -3.48495,7.60339 -3.49033,4.41878 -9.01823,7.04357 -14.6381,7.39736 -5.61986,0.35379 -11.27713,-1.46271 -15.91548,-4.65548 -4.63834,-3.19277 -8.28743,-7.70512 -10.867,-12.71051 -1.57914,-3.06416 -2.78052,-6.328 -4.60426,-9.25319 -0.91187,-1.46259 -1.98125,-2.83805 -3.27111,-3.98127 -1.28987,-1.14321 -2.80778,-2.05039 -4.46787,-2.51382 -2.98105,-0.83219 -6.25746,-0.16325 -8.92868,1.39999 -2.67123,1.56324 -4.782012,3.95497 -6.423477,6.57886 -3.28293,5.24777 -4.807992,11.43909 -8.057454,16.70765 -1.861183,3.01765 -4.286884,5.70453 -7.195034,7.73256 -2.908149,2.02803 -6.304543,3.38471 -9.830138,3.75943 -3.777214,0.40146 -7.66083,-0.33893 -11.050443,-2.05329 -3.389613,-1.71436 -6.277715,-4.39115 -8.29103,-7.61219 -2.013314,-3.22103 -3.15208,-6.97498 -3.322809,-10.76963 -0.170729,-3.79465 0.621376,-7.62232 2.234078,-11.06146 1.859307,-3.96504 4.758247,-7.36059 7.94196,-10.36767 3.183713,-3.00707 6.673995,-5.66877 9.993897,-8.52478 3.319901,-2.85601 6.499831,-5.94263 8.891832,-9.61099 2.392001,-3.66836 3.965249,-7.98014 3.817619,-12.35698 -0.14654,-4.34453 -1.974755,-8.50235 -4.501049,-12.0399 -2.526293,-3.53755 -5.733451,-6.52618 -8.967028,-9.43142 -3.233577,-2.905236 -6.533372,-5.770252 -9.299612,-9.12351 -2.766239,-3.353258 -5.001422,-7.260306 -5.749473,-11.542459 z"
       id="path4297"
       inkscape:connector-curvature="0"
       inkscape:path-effect="#path-effect4299"
       inkscape:original-d="M 53.823139,82.010861 C 49.56658,64.702201 78.205905,63.458105 86.170964,62.857543 c 58.328016,-4.397905 8.51285,8.370446 10.215102,11.917619 1.702254,3.547177 10.924744,9.647334 20.430204,18.302058 9.50545,8.65472 27.9878,-12.989106 16.1739,-20.430202 -29.45095,-18.549967 32.63185,4.96541 42.1373,7.661326 9.50546,2.695919 -15.03864,14.89676 -18.72769,22.132716 -3.68905,7.23596 -11.98611,34.04045 -20.85583,22.98398 -10.641,-13.26443 6.81033,18.86931 11.91762,25.96339 5.10729,7.09409 14.47166,12.48486 21.70709,18.72769 7.23544,6.24283 -31.35442,4.53978 -44.26544,5.95881 -12.91102,1.41903 20.17971,250.47429 -12.34324,-15.74828 -1.83708,-15.03771 -16.173648,16.88303 -23.409611,24.6865 -7.235962,7.80347 -13.194244,-0.70965 -17.025172,11.49199 C 68.294268,208.70677 58.505325,175.50716 51.694993,165.00857 44.88466,154.50998 74.679237,136.20739 82.340301,124.14815 90.001361,112.08892 58.079697,99.319519 53.823139,82.010861 Z"
       sodipodi:nodetypes="sssssssssssssssss" />
    <path
       style="fill:#ff7f2a;stroke:none;stroke-width:0.26458332px;stroke-linecap:butt;stroke-linejoin:miter;stroke-opacity:1"
       d="m 152.14898,66.996145 c 1.56308,-5.643217 11.95784,-2.335093 14.12931,-0.661172 5.54098,4.029014 7.51501,9.936389 5.41345,16.202834 -0.23733,0.712671 -0.32125,2.141739 -1.05695,1.990199 1.16448,-15.717691 -11.52101,-17.700881 -18.48581,-17.531861 z"
       id="path4309"
       inkscape:connector-curvature="0"
       sodipodi:nodetypes="ccccc" />
    <path
       style="fill:#ff7f2a;stroke:none;stroke-width:0.26458332px;stroke-linecap:butt;stroke-linejoin:miter;stroke-opacity:1"
       d="m 74.045866,65.47728 c 0.004,-5.855688 3.816148,-3.96833 6.354948,-2.93305 6.41376,2.408136 14.289074,9.043131 13.931984,15.642931 C 89.530862,70.0138 81.279564,68.429744 74.045866,65.47728 Z"
       id="path4309-2"
       inkscape:connector-curvature="0"
       sodipodi:nodetypes="cccc" />
    <path
       style="fill:#ff7f2a;stroke:none;stroke-width:0.20124981px;stroke-linecap:butt;stroke-linejoin:miter;stroke-opacity:1"
       d="m 156.05681,164.60159 c 0.002,-5.85569 2.20786,-3.96833 3.6767,-2.93305 3.71072,2.40813 8.26704,9.04313 8.06044,15.64293 -2.7782,-8.17336 -7.55204,-9.75742 -11.73714,-12.70988 z"
       id="path4309-2-9"
       inkscape:connector-curvature="0"
       sodipodi:nodetypes="cccc" />
  </g>
</svg>
